<svg width="763" height="651" viewBox="0 0 763 651" fill="none" xmlns="http://www.w3.org/2000/svg">
<path d="M55.6208 544.766L76.245 524.142L76.245 524.142L55.6208 544.766ZM55.6208 164.721L76.2449 185.345L76.245 185.345L55.6208 164.721ZM334.284 236.741L354.908 257.365L354.908 257.365L334.284 236.741ZM147.585 240.619V211.452H118.418V240.619H147.585ZM147.585 315.409H118.418V344.576H147.585V315.409ZM322.096 319.841L300.145 339.048L300.785 339.779L301.472 340.465L322.096 319.841ZM322.096 387.983L342.72 408.608L343.407 407.921L344.046 407.19L322.096 387.983ZM147.585 391.861V362.695H118.418V391.861H147.585ZM147.585 468.868H118.418V498.035H147.585V468.868ZM338.716 472.746L318.092 493.37L318.092 493.37L338.716 472.746ZM338.716 544.766L318.092 524.142L318.092 524.142L338.716 544.766ZM65.5928 519.477C66.6794 519.477 68.4806 519.657 70.6243 520.491C72.8278 521.348 74.7516 522.649 76.245 524.142L34.9966 565.39C43.6838 574.077 54.7366 577.811 65.5928 577.811V519.477ZM76.245 524.142C77.7383 525.635 79.0391 527.559 79.896 529.763C80.7297 531.906 80.9098 533.707 80.9098 534.794H22.5758C22.5758 545.65 26.3095 556.703 34.9966 565.39L76.245 524.142ZM80.9098 534.794V174.693H22.5758V534.794H80.9098ZM80.9098 174.693C80.9098 175.779 80.7297 177.581 79.896 179.724C79.0391 181.928 77.7383 183.852 76.2449 185.345L34.9967 144.096C26.3094 152.784 22.5758 163.837 22.5758 174.693H80.9098ZM76.245 185.345C74.7517 186.838 72.8279 188.139 70.6243 188.996C68.4806 189.83 66.6794 190.01 65.5928 190.01V131.676C54.7366 131.676 43.6838 135.409 34.9966 144.097L76.245 185.345ZM65.5928 190.01H324.312V131.676H65.5928V190.01ZM324.312 190.01C323.225 190.01 321.424 189.83 319.28 188.996C317.077 188.139 315.153 186.838 313.66 185.345L354.908 144.097C346.221 135.409 335.168 131.676 324.312 131.676V190.01ZM313.66 185.345C312.166 183.852 310.865 181.928 310.008 179.724C309.175 177.58 308.995 175.779 308.995 174.693H367.329C367.329 163.837 363.595 152.784 354.908 144.097L313.66 185.345ZM308.995 174.693V226.769H367.329V174.693H308.995ZM308.995 226.769C308.995 225.682 309.175 223.881 310.008 221.738C310.865 219.534 312.166 217.61 313.66 216.117L354.908 257.365C363.595 248.678 367.329 237.625 367.329 226.769H308.995ZM313.66 216.117C315.153 214.623 317.077 213.323 319.28 212.466C321.424 211.632 323.225 211.452 324.312 211.452V269.786C335.168 269.786 346.221 266.052 354.908 257.365L313.66 216.117ZM324.312 211.452H147.585V269.786H324.312V211.452ZM118.418 240.619V315.409H176.752V240.619H118.418ZM147.585 344.576H312.124V286.242H147.585V344.576ZM312.124 344.576C310.553 344.576 308.299 344.273 305.818 343.17C303.311 342.056 301.416 340.5 300.145 339.048L344.046 300.635C335.706 291.103 324.263 286.242 312.124 286.242V344.576ZM301.472 340.465C299.978 338.972 298.677 337.048 297.82 334.845C296.987 332.701 296.807 330.9 296.807 329.813H355.141C355.141 318.957 351.407 307.904 342.72 299.217L301.472 340.465ZM296.807 329.813V378.011H355.141V329.813H296.807ZM296.807 378.011C296.807 376.373 297.109 374.531 297.82 372.703C298.521 370.901 299.429 369.595 300.145 368.777L344.046 407.19C350.965 399.283 355.141 389.239 355.141 378.011H296.807ZM301.472 367.359C302.965 365.866 304.889 364.565 307.092 363.708C309.236 362.875 311.037 362.695 312.124 362.695V421.028C322.98 421.028 334.033 417.295 342.72 408.608L301.472 367.359ZM312.124 362.695H147.585V421.028H312.124V362.695ZM118.418 391.861V468.868H176.752V391.861H118.418ZM147.585 498.035H328.744V439.701H147.585V498.035ZM328.744 498.035C327.657 498.035 325.856 497.855 323.712 497.021C321.509 496.164 319.585 494.863 318.092 493.37L359.34 452.122C350.653 443.434 339.6 439.701 328.744 439.701V498.035ZM318.092 493.37C316.598 491.877 315.297 489.953 314.441 487.749C313.607 485.606 313.427 483.804 313.427 482.718H371.761C371.761 471.862 368.027 460.809 359.34 452.122L318.092 493.37ZM313.427 482.718V534.794H371.761V482.718H313.427ZM313.427 534.794C313.427 533.707 313.607 531.906 314.441 529.763C315.297 527.559 316.598 525.635 318.092 524.142L359.34 565.39C368.027 556.703 371.761 545.65 371.761 534.794H313.427ZM318.092 524.142C319.585 522.649 321.509 521.348 323.712 520.491C325.856 519.657 327.657 519.477 328.744 519.477V577.811C339.6 577.811 350.653 574.077 359.34 565.39L318.092 524.142ZM328.744 519.477H65.5928V577.811H328.744V519.477Z" fill="#9390FF"/>
<path d="M457.842 549.248L475.395 525.955L475.395 525.955L457.842 549.248ZM404.95 172.901L428.244 190.455L428.244 190.454L404.95 172.901ZM496.568 160.025L479.015 183.319L479.79 183.904L480.603 184.435L496.568 160.025ZM542.746 456.755L513.863 460.815L517.922 489.698L546.805 485.639L542.746 456.755ZM718.918 436.472L699.855 458.546L701.326 459.817L702.954 460.881L718.918 436.472ZM729.404 511.083L707.33 492.019L706.695 492.754L706.11 493.53L729.404 511.083ZM464.197 522.818C465.273 522.666 467.082 522.594 469.321 523.121C471.622 523.663 473.708 524.684 475.395 525.955L440.289 572.542C450.1 579.936 461.565 582.095 472.316 580.584L464.197 522.818ZM475.395 525.955C477.082 527.225 478.638 528.949 479.793 531.012C480.917 533.019 481.346 534.778 481.497 535.854L423.731 543.972C425.242 554.723 430.477 565.148 440.289 572.542L475.395 525.955ZM481.497 535.854L431.38 179.257L373.614 187.375L423.731 543.972L481.497 535.854ZM431.38 179.257C431.532 180.333 431.604 182.142 431.077 184.38C430.535 186.682 429.515 188.768 428.244 190.455L381.656 155.348C374.262 165.16 372.103 176.625 373.614 187.375L431.38 179.257ZM428.244 190.454C426.973 192.141 425.249 193.697 423.186 194.852C421.179 195.976 419.42 196.405 418.344 196.556L410.226 138.79C399.475 140.301 389.05 145.537 381.656 155.348L428.244 190.454ZM418.344 196.556L490.761 186.379L482.642 128.613L410.226 138.79L418.344 196.556ZM490.761 186.379C489.151 186.605 487.026 186.601 484.667 185.996C482.302 185.389 480.391 184.356 479.015 183.319L514.121 136.732C504.953 129.823 493.873 127.034 482.642 128.613L490.761 186.379ZM480.603 184.435C478.988 183.379 477.183 181.719 475.731 179.392C474.294 177.088 473.68 174.898 473.461 173.343L531.228 165.224C529.538 153.203 523.132 142.548 512.533 135.615L480.603 184.435ZM473.461 173.343L513.863 460.815L571.629 452.696L531.228 165.224L473.461 173.343ZM546.805 485.639L712.486 462.354L704.367 404.587L538.687 427.872L546.805 485.639ZM712.486 462.354C710.93 462.572 708.656 462.586 706.046 461.839C703.408 461.085 701.315 459.807 699.855 458.546L737.982 414.397C728.396 406.119 716.388 402.898 704.367 404.587L712.486 462.354ZM702.954 460.881C701.339 459.825 699.534 458.165 698.082 455.838C696.644 453.534 696.031 451.345 695.812 449.789L753.578 441.671C751.889 429.65 745.483 418.994 734.883 412.062L702.954 460.881ZM695.812 449.789L703.522 504.65L761.288 496.532L753.578 441.671L695.812 449.789ZM703.522 504.65C703.303 503.094 703.29 500.821 704.037 498.21C704.791 495.573 706.069 493.479 707.33 492.019L751.479 530.146C759.757 520.561 762.978 508.553 761.288 496.532L703.522 504.65ZM706.11 493.53C707.381 491.843 709.105 490.287 711.168 489.132C713.175 488.008 714.934 487.579 716.01 487.428L724.128 545.194C734.879 543.683 745.304 538.447 752.698 528.636L706.11 493.53ZM716.01 487.428L464.197 522.818L472.316 580.584L724.128 545.194L716.01 487.428Z" fill="#9391FF"/>
<path d="M52.6302 571.329C48.5675 571.329 45.2435 570.036 42.6581 567.451C40.0728 564.865 38.7801 561.541 38.7801 557.479V197.377C38.7801 193.315 40.0728 189.991 42.6581 187.405C45.2435 184.82 48.5675 183.527 52.6302 183.527H311.349C315.412 183.527 318.736 184.82 321.321 187.405C323.906 189.991 325.199 193.315 325.199 197.377V249.454C325.199 253.516 323.906 256.84 321.321 259.426C318.736 262.011 315.412 263.304 311.349 263.304H134.622V338.094H299.161C303.224 338.094 306.548 339.571 309.133 342.526C311.718 345.111 313.011 348.435 313.011 352.498V400.696C313.011 404.39 311.718 407.714 309.133 410.668C306.548 413.254 303.224 414.546 299.161 414.546H134.622V491.552H315.781C319.844 491.552 323.168 492.845 325.753 495.43C328.338 498.016 329.631 501.34 329.631 505.403V557.479C329.631 561.541 328.338 564.865 325.753 567.451C323.168 570.036 319.844 571.329 315.781 571.329H52.6302Z" fill="#9390FF" fill-opacity="0.5"/>
<path d="M42.6581 567.451L63.2823 546.827L63.2823 546.827L42.6581 567.451ZM42.6581 187.405L63.2823 208.03L63.2824 208.03L42.6581 187.405ZM321.321 259.426L341.945 280.05L341.945 280.05L321.321 259.426ZM134.622 263.304V234.137H105.455V263.304H134.622ZM134.622 338.094H105.455V367.261H134.622V338.094ZM309.133 342.526L287.183 361.733L287.822 362.463L288.509 363.15L309.133 342.526ZM309.133 410.668L329.757 431.292L330.444 430.606L331.083 429.875L309.133 410.668ZM134.622 414.546V385.379H105.455V414.546H134.622ZM134.622 491.552H105.455V520.719H134.622V491.552ZM325.753 495.43L305.129 516.055L305.129 516.055L325.753 495.43ZM325.753 567.451L305.129 546.827L305.129 546.827L325.753 567.451ZM52.6302 542.162C53.7167 542.162 55.518 542.342 57.6616 543.175C59.8652 544.032 61.789 545.333 63.2823 546.827L22.034 588.075C30.7212 596.762 41.774 600.496 52.6302 600.496V542.162ZM63.2823 546.827C64.7757 548.32 66.0764 550.244 66.9334 552.447C67.767 554.591 67.9471 556.392 67.9471 557.479H9.61316C9.61316 568.335 13.3468 579.388 22.034 588.075L63.2823 546.827ZM67.9471 557.479V197.377H9.61316V557.479H67.9471ZM67.9471 197.377C67.9471 198.464 67.767 200.265 66.9334 202.409C66.0764 204.612 64.7756 206.536 63.2823 208.03L22.034 166.781C13.3468 175.468 9.61316 186.521 9.61316 197.377H67.9471ZM63.2824 208.03C61.789 209.523 59.8652 210.824 57.6617 211.681C55.518 212.514 53.7167 212.694 52.6302 212.694V154.36C41.774 154.36 30.7211 158.094 22.0339 166.781L63.2824 208.03ZM52.6302 212.694H311.349V154.36H52.6302V212.694ZM311.349 212.694C310.263 212.694 308.461 212.514 306.318 211.681C304.114 210.824 302.19 209.523 300.697 208.03L341.945 166.781C333.258 158.094 322.205 154.36 311.349 154.36V212.694ZM300.697 208.03C299.204 206.536 297.903 204.612 297.046 202.409C296.212 200.265 296.032 198.464 296.032 197.377H354.366C354.366 186.521 350.632 175.468 341.945 166.781L300.697 208.03ZM296.032 197.377V249.454H354.366V197.377H296.032ZM296.032 249.454C296.032 248.367 296.212 246.566 297.046 244.422C297.903 242.219 299.204 240.295 300.697 238.802L341.945 280.05C350.632 271.363 354.366 260.31 354.366 249.454H296.032ZM300.697 238.801C302.19 237.308 304.114 236.007 306.318 235.15C308.461 234.317 310.263 234.137 311.349 234.137V292.471C322.205 292.471 333.258 288.737 341.945 280.05L300.697 238.801ZM311.349 234.137H134.622V292.471H311.349V234.137ZM105.455 263.304V338.094H163.789V263.304H105.455ZM134.622 367.261H299.161V308.927H134.622V367.261ZM299.161 367.261C297.59 367.261 295.336 366.958 292.855 365.855C290.348 364.741 288.453 363.185 287.183 361.733L331.083 323.319C322.743 313.788 311.3 308.927 299.161 308.927V367.261ZM288.509 363.15C287.016 361.657 285.715 359.733 284.858 357.529C284.024 355.386 283.844 353.585 283.844 352.498H342.178C342.178 341.642 338.444 330.589 329.757 321.902L288.509 363.15ZM283.844 352.498V400.696H342.178V352.498H283.844ZM283.844 400.696C283.844 399.057 284.147 397.216 284.858 395.388C285.558 393.586 286.467 392.28 287.183 391.462L331.083 429.875C338.002 421.967 342.178 411.924 342.178 400.696H283.844ZM288.509 390.044C290.002 388.551 291.926 387.25 294.13 386.393C296.273 385.559 298.074 385.379 299.161 385.379V443.713C310.017 443.713 321.07 439.98 329.757 431.292L288.509 390.044ZM299.161 385.379H134.622V443.713H299.161V385.379ZM105.455 414.546V491.552H163.789V414.546H105.455ZM134.622 520.719H315.781V462.386H134.622V520.719ZM315.781 520.719C314.695 520.719 312.893 520.539 310.75 519.706C308.546 518.849 306.622 517.548 305.129 516.055L346.377 474.806C337.69 466.119 326.637 462.386 315.781 462.386V520.719ZM305.129 516.055C303.636 514.561 302.335 512.638 301.478 510.434C300.644 508.29 300.464 506.489 300.464 505.403H358.798C358.798 494.546 355.064 483.493 346.377 474.806L305.129 516.055ZM300.464 505.403V557.479H358.798V505.403H300.464ZM300.464 557.479C300.464 556.392 300.644 554.591 301.478 552.447C302.335 550.244 303.636 548.32 305.129 546.827L346.377 588.075C355.064 579.388 358.798 568.335 358.798 557.479H300.464ZM305.129 546.827C306.622 545.333 308.546 544.032 310.75 543.176C312.893 542.342 314.695 542.162 315.781 542.162V600.496C326.637 600.496 337.69 596.762 346.377 588.075L305.129 546.827ZM315.781 542.162H52.6302V600.496H315.781V542.162Z" fill="white"/>
<path d="M455.294 574.388C451.271 574.953 447.799 574.136 444.879 571.936C441.959 569.735 440.217 566.623 439.651 562.6L389.535 206.003C388.969 201.98 389.787 198.509 391.987 195.589C394.188 192.669 397.299 190.926 401.322 190.361L473.739 180.183C477.396 179.669 480.685 180.512 483.605 182.713C486.891 184.862 488.816 187.948 489.382 191.971L529.783 479.443L695.464 456.158C699.487 455.593 702.984 456.593 705.956 459.159C709.241 461.308 711.167 464.394 711.732 468.417L719.443 523.278C720.008 527.301 719.008 530.799 716.442 533.77C714.241 536.69 711.129 538.433 707.106 538.998L455.294 574.388Z" fill="#9390FF" fill-opacity="0.5"/>
<path d="M444.879 571.936L462.432 548.642L462.432 548.642L444.879 571.936ZM391.987 195.589L415.281 213.142L415.281 213.142L391.987 195.589ZM483.605 182.713L466.052 206.006L466.828 206.591L467.64 207.122L483.605 182.713ZM529.783 479.443L500.9 483.502L504.96 512.385L533.843 508.326L529.783 479.443ZM705.956 459.159L686.892 481.234L688.364 482.505L689.991 483.569L705.956 459.159ZM716.442 533.77L694.367 514.706L693.732 515.441L693.148 516.217L716.442 533.77ZM451.235 545.505C452.311 545.354 454.119 545.281 456.358 545.809C458.66 546.35 460.746 547.371 462.432 548.642L427.326 595.229C437.138 602.623 448.603 604.782 459.353 603.271L451.235 545.505ZM462.432 548.642C464.119 549.913 465.675 551.637 466.83 553.7C467.954 555.706 468.383 557.465 468.534 558.541L410.768 566.66C412.279 577.41 417.514 587.836 427.326 595.229L462.432 548.642ZM468.534 558.541L418.418 201.944L360.652 210.063L410.768 566.66L468.534 558.541ZM418.418 201.944C418.569 203.02 418.641 204.829 418.114 207.068C417.572 209.369 416.552 211.455 415.281 213.142L368.693 178.036C361.3 187.847 359.141 199.312 360.652 210.063L418.418 201.944ZM415.281 213.142C414.01 214.828 412.286 216.384 410.223 217.54C408.216 218.663 406.458 219.092 405.382 219.244L397.263 161.477C386.513 162.988 376.087 168.224 368.693 178.036L415.281 213.142ZM405.382 219.244L477.798 209.066L469.68 151.3L397.263 161.477L405.382 219.244ZM477.798 209.066C476.188 209.293 474.064 209.288 471.705 208.683C469.34 208.077 467.428 207.044 466.052 206.006L501.158 159.419C491.99 152.51 480.91 149.722 469.68 151.3L477.798 209.066ZM467.64 207.122C466.026 206.066 464.221 204.406 462.768 202.079C461.331 199.775 460.717 197.586 460.499 196.03L518.265 187.912C516.576 175.891 510.169 165.235 499.57 158.303L467.64 207.122ZM460.499 196.03L500.9 483.502L558.667 475.384L518.265 187.912L460.499 196.03ZM533.843 508.326L699.523 485.041L691.405 427.275L525.724 450.56L533.843 508.326ZM699.523 485.041C697.967 485.26 695.693 485.273 693.083 484.527C690.446 483.772 688.352 482.495 686.892 481.234L725.019 437.084C715.434 428.806 703.426 425.585 691.405 427.275L699.523 485.041ZM689.991 483.569C688.376 482.513 686.571 480.853 685.119 478.525C683.682 476.222 683.068 474.032 682.849 472.476L740.616 464.358C738.926 452.337 732.52 441.682 721.92 434.749L689.991 483.569ZM682.849 472.476L690.559 527.337L748.326 519.219L740.616 464.358L682.849 472.476ZM690.559 527.337C690.341 525.782 690.327 523.508 691.074 520.897C691.828 518.26 693.106 516.167 694.367 514.706L738.516 552.834C746.794 543.248 750.015 531.24 748.326 519.219L690.559 527.337ZM693.148 516.217C694.419 514.53 696.143 512.974 698.206 511.819C700.212 510.695 701.971 510.266 703.047 510.115L711.166 567.881C721.916 566.37 732.342 561.135 739.735 551.323L693.148 516.217ZM703.047 510.115L451.235 545.505L459.353 603.271L711.166 567.881L703.047 510.115Z" fill="white"/>
</svg>
